<svg viewBox="0 0 403.5 111" preserveAspectRatio="xMidYMid meet" class="css-g5ufxp" id="ddehbffc"><defs id="SvgjsDefs3798"></defs><g id="SvgjsG3799" featurekey="symbolContainer" transform="matrix(1,0,0,1,0,0)" fill="#fff">    <path xmlns="http://www.w3.org/2000/svg" fill-rule="nonzero" d="             M0,0             H121             V111             H0,0             z             M4,4             v103             h113             v-103             z     "></path></g><g id="SvgjsG3800" featurekey="symbolFeature-0" transform="matrix(1.09375,0,0,1.09375,6.062507301568985,0.8751335144042969)" fill="#fff"><g xmlns="http://www.w3.org/2000/svg" transform="translate(0,-952.36218)"><path d="m 60.7828,964.36215 27.1809,0.8834 -27.1809,25.9958 z m -1.9745,1.4513 0,26.7845 -25.2681,0 c 8.6166,-8.7334 16.8796,-17.8103 25.2681,-26.7845 z m 27.7053,3.628 3.4864,1.1989 -12.5877,7.4768 z m -68.1835,2.9656 5.5226,0 12.8654,14.0705 -5.9854,6.1204 -12.4026,0 c 9e-4,-6.7347 0,-13.4597 0,-20.1909 z m -1.9746,1.2304 0,5.8364 -6.3555,0 z m 3.363,20.9796 38.627,0 -10.7675,29.43465 z m 39.0898,4.54286 0,41.20229 -12.5878,-6.8775 c 4.1972,-11.443 8.3886,-22.879 12.5878,-34.32479 z" style="text-indent:0;text-transform:none;direction:ltr;block-progression:tb;baseline-shift:baseline;color:;enable-background:accumulate;" fill="#fff" fill-opacity="1" stroke="none" marker="none" visibility="visible" display="inline" overflow="visible"></path></g></g><g id="SvgjsG3801" featurekey="nameFeature-0" transform="matrix(2.3370726559225248,0,0,2.3370726559225248,138.10202765556184,-5.297004876780729)" fill="#fff"><path d="M19.92 21.08 l-5.92 0 l0 -1.48 c0 -0.44 -0.16 -0.84 -0.48 -1.16 c-0.28 -0.32 -0.72 -0.48 -1.16 -0.48 l-3.56 0 c-0.44 0 -0.88 0.16 -1.16 0.48 c-0.32 0.32 -0.48 0.72 -0.48 1.16 l0 2.24 c0 0.44 0.16 0.88 0.48 1.16 c0.28 0.32 0.72 0.48 1.16 0.48 l3.56 0 c2.04 0 3.92 0.8 5.36 2.24 c1.4 1.4 2.2 3.32 2.2 5.32 l0 2.28 c0 2 -0.8 3.88 -2.2 5.32 c-1.44 1.44 -3.32 2.2 -5.36 2.2 l-3.56 0 c-2.04 0 -3.92 -0.76 -5.36 -2.2 s-2.2 -3.32 -2.2 -5.32 l0 -1.48 l5.92 0 l0 1.48 c0 0.44 0.16 0.84 0.48 1.16 c0.28 0.28 0.72 0.48 1.16 0.48 l3.56 0 c0.44 0 0.88 -0.2 1.16 -0.48 c0.32 -0.32 0.48 -0.72 0.48 -1.16 l0 -2.28 c0 -0.44 -0.16 -0.84 -0.48 -1.16 c-0.28 -0.32 -0.72 -0.48 -1.16 -0.48 l-3.56 0 c-2.04 0 -3.92 -0.8 -5.36 -2.2 c-1.44 -1.44 -2.2 -3.32 -2.2 -5.36 l0 -2.24 c0 -2.04 0.76 -3.92 2.2 -5.36 c1.44 -1.4 3.32 -2.2 5.36 -2.2 l3.56 0 c2.04 0 3.92 0.8 5.36 2.2 c1.4 1.44 2.2 3.32 2.2 5.36 l0 1.48 z M12.36 17.2 c0.64 0 1.24 0.24 1.72 0.68 c0.44 0.48 0.68 1.08 0.68 1.72 l0 0.72 l4.4 0 l0 -0.72 c0 -1.84 -0.72 -3.52 -2 -4.8 s-2.96 -2 -4.8 -2 l-3.56 0 c-1.84 0 -3.52 0.72 -4.8 2 c-1.32 1.28 -2 2.96 -2 4.8 l0 2.24 c0 1.84 0.68 3.52 2 4.8 c1.28 1.28 2.96 2 4.8 2 l3.56 0 c0.64 0 1.24 0.24 1.72 0.72 c0.44 0.44 0.68 1.04 0.68 1.68 l0 2.28 c0 0.64 -0.24 1.24 -0.68 1.68 c-0.48 0.44 -1.08 0.72 -1.72 0.72 l-3.56 0 c-0.68 0 -1.28 -0.28 -1.72 -0.72 s-0.68 -1.04 -0.68 -1.68 l0 -0.72 l-4.4 0 l0 0.72 c0 1.8 0.68 3.52 2 4.8 c1.28 1.28 2.96 1.96 4.8 1.96 l3.56 0 c1.84 0 3.52 -0.68 4.8 -1.96 s2 -3 2 -4.8 l0 -2.28 c0 -1.8 -0.72 -3.52 -2 -4.8 s-2.96 -2 -4.8 -2 l-3.56 0 c-0.68 0 -1.28 -0.24 -1.72 -0.68 c-0.44 -0.48 -0.68 -1.08 -0.68 -1.72 l0 -2.24 c0 -0.64 0.24 -1.24 0.68 -1.72 c0.44 -0.44 1.04 -0.68 1.72 -0.68 l3.56 0 z M22.4 11.68 l5.96 0 l0 29.08 l-5.96 0 l0 -29.08 z M27.6 40 l0 -27.56 l-4.44 0 l0 27.56 l4.44 0 z M43.6 12.04 l5.92 0 l0 28.8 l-5.92 0 l0 -8.36 l-6.84 -4.8 l0 13.16 l-5.92 0 l0 -28.8 l5.92 0 l0 8.4 l6.84 4.8 l0 -13.2 z M48.760000000000005 40.08 l0 -27.28 l-4.4 0 l0 13.92 l-8.36 -5.88 l0 -8.04 l-4.4 0 l0 27.28 l4.4 0 l0 -13.88 l8.36 5.88 l0 8 l4.4 0 z M68.64 13.920000000000002 c1.44 1.44 2.24 3.32 2.24 5.36 l0 21.48 l-5.96 0 l0 -3.96 l-6.96 0 l0 3.96 l-5.96 0 l0 -21.48 c0 -2.04 0.8 -3.92 2.24 -5.36 s3.36 -2.24 5.4 -2.24 l3.64 0 c2 0 3.92 0.8 5.36 2.24 z M70.12 40 l0 -20.72 c0 -1.8 -0.72 -3.52 -2 -4.84 c-1.32 -1.28 -3.04 -2 -4.84 -2 l-3.64 0 c-1.84 0 -3.56 0.72 -4.84 2 c-1.32 1.32 -2.04 3.04 -2.04 4.84 l0 20.72 l4.44 0 l0 -3.96 l8.48 0 l0 3.96 l4.44 0 z M63.28 16.88 c0.64 0 1.24 0.24 1.68 0.72 c0.48 0.44 0.72 1.04 0.72 1.68 l0 12.32 l-8.48 0 l0 -12.32 c0 -0.64 0.28 -1.24 0.72 -1.68 c0.44 -0.48 1.08 -0.72 1.72 -0.72 l3.64 0 z M64.92 30.84 l0 -11.56 c0 -0.44 -0.2 -0.84 -0.48 -1.16 c-0.32 -0.32 -0.72 -0.48 -1.16 -0.48 l-3.64 0 c-0.44 0 -0.88 0.16 -1.16 0.48 c-0.32 0.32 -0.52 0.72 -0.52 1.16 l0 11.56 l6.96 0 z M84.60000000000001 16.88 c0.64 0 1.28 0.24 1.72 0.72 c0.44 0.44 0.72 1.04 0.72 1.68 l0 2.32 c0 0.6 -0.28 1.24 -0.72 1.68 c-0.44 0.48 -1.08 0.72 -1.72 0.72 l-6.04 0 l0 -7.12 l6.04 0 z M86.28 21.6 l0 -2.32 c0 -0.44 -0.2 -0.84 -0.52 -1.16 c-0.28 -0.32 -0.72 -0.48 -1.16 -0.48 l-5.28 0 l0 5.6 l5.28 0 c0.44 0 0.88 -0.2 1.16 -0.48 c0.32 -0.32 0.52 -0.76 0.52 -1.16 z M84.60000000000001 28.439999999999998 c1.24 0 2.44 1.04 2.44 2.4 l0 2.32 c0 1.24 -1.08 2.4 -2.44 2.4 l-6.04 0 l0 -7.12 l6.04 0 z M86.28 33.16 l0 -2.32 c0 -0.84 -0.76 -1.64 -1.68 -1.64 l-5.28 0 l0 5.6 l5.28 0 c0.84 0 1.68 -0.72 1.68 -1.64 z M92.24000000000001 19.28 l0 2.32 c0 1.68 -0.56 3.28 -1.56 4.6 c1 1.36 1.56 2.96 1.56 4.64 l0 2.32 c0 2.04 -0.8 3.92 -2.24 5.36 s-3.36 2.24 -5.4 2.24 l-11.24 0 l0 -29.08 l11.24 0 c2.04 0 3.96 0.8 5.4 2.24 s2.24 3.32 2.24 5.36 z M91.48 21.6 l0 -2.32 c0 -1.8 -0.72 -3.52 -2 -4.84 c-1.32 -1.28 -3.04 -2 -4.88 -2 l-10.48 0 l0 27.56 l10.48 0 c1.84 0 3.56 -0.72 4.88 -2 c1.28 -1.32 2 -3.04 2 -4.84 l0 -2.32 c0 -1.52 -0.52 -2.96 -1.44 -4.16 l-0.36 -0.48 l0.36 -0.44 c0.92 -1.2 1.44 -2.64 1.44 -4.16 z M113.56 17.64 l-12.88 0 l0 5.6 l8.32 0 l0 5.96 l-8.32 0 l0 5.6 l12.88 0 l0 5.96 l-18.88 0 l0 -29.08 l18.88 0 l0 5.96 z M108.24000000000001 24 l-8.36 0 l0 -7.12 l12.92 0 l0 -4.44 l-17.32 0 l0 27.56 l17.32 0 l0 -4.44 l-12.92 0 l0 -7.12 l8.36 0 l0 -4.44 z"></path></g></svg>